<svg width="24" height="24" viewBox="0 0 24 24" fill="none" xmlns="http://www.w3.org/2000/svg">
<g clip-path="url(#clip0_42_572)">
<path fill-rule="evenodd" clip-rule="evenodd" d="M20.25 3.75H3.75C2.92157 3.75 2.25 4.42157 2.25 5.25V18.75C2.25 19.5784 2.92157 20.25 3.75 20.25H20.25C21.0784 20.25 21.75 19.5784 21.75 18.75V5.25C21.75 4.42157 21.0784 3.75 20.25 3.75V3.75ZM14.625 8.25C15.2463 8.25 15.75 8.75368 15.75 9.375C15.75 9.99632 15.2463 10.5 14.625 10.5C14.0037 10.5 13.5 9.99632 13.5 9.375C13.5 8.75368 14.0037 8.25 14.625 8.25V8.25ZM3.75 18.75V16.125L8.625 11.25L16.125 18.75H3.75ZM20.25 18.75H18.2466L14.8716 15.375L16.7466 13.5L20.25 17.0044V18.75V18.75Z" fill="#121417"/>
</g>
<defs>
<clipPath id="clip0_42_572">
<rect width="24" height="24" fill="white"/>
</clipPath>
</defs>
</svg>
