<svg width="24" height="24" viewBox="0 0 24 24" fill="none" xmlns="http://www.w3.org/2000/svg">
<g clip-path="url(#clip0_42_579)">
<path fill-rule="evenodd" clip-rule="evenodd" d="M15.4163 9.87562L10.9163 6.87563C10.6861 6.72204 10.39 6.70769 10.146 6.83831C9.90204 6.96892 9.74982 7.22327 9.75 7.5V13.5C9.74982 13.7767 9.90204 14.0311 10.146 14.1617C10.39 14.2923 10.6861 14.278 10.9163 14.1244L15.4163 11.1244C15.6252 10.9853 15.7507 10.751 15.7507 10.5C15.7507 10.249 15.6252 10.0147 15.4163 9.87562V9.87562ZM11.25 12.0984V8.90625L13.6481 10.5L11.25 12.0984ZM20.25 3.75H3.75C2.92157 3.75 2.25 4.42157 2.25 5.25V15.75C2.25 16.5784 2.92157 17.25 3.75 17.25H20.25C21.0784 17.25 21.75 16.5784 21.75 15.75V5.25C21.75 4.42157 21.0784 3.75 20.25 3.75V3.75ZM20.25 15.75H3.75V5.25H20.25V15.75V15.75ZM21.75 19.5C21.75 19.9142 21.4142 20.25 21 20.25H3C2.58579 20.25 2.25 19.9142 2.25 19.5C2.25 19.0858 2.58579 18.75 3 18.75H21C21.4142 18.75 21.75 19.0858 21.75 19.5V19.5Z" fill="#121417"/>
</g>
<defs>
<clipPath id="clip0_42_579">
<rect width="24" height="24" fill="white"/>
</clipPath>
</defs>
</svg>
