<svg width="24" height="24" viewBox="0 0 24 24" fill="none" xmlns="http://www.w3.org/2000/svg">
<g clip-path="url(#clip0_42_586)">
<path fill-rule="evenodd" clip-rule="evenodd" d="M19.7156 5.28188L12.2156 3.03187C11.9886 2.96372 11.7427 3.00692 11.5524 3.14839C11.3622 3.28986 11.2501 3.51294 11.25 3.75V13.8994C9.66713 12.4836 7.30995 12.3672 5.59523 13.62C3.88052 14.8728 3.27507 17.1539 4.14279 19.0922C5.01051 21.0305 7.11519 22.0983 9.1918 21.6538C11.2684 21.2094 12.7516 19.3736 12.75 17.25V9.25781L19.2844 11.2181C19.5114 11.2863 19.7573 11.2431 19.9476 11.1016C20.1378 10.9601 20.2499 10.7371 20.25 10.5V6C20.2499 5.66892 20.0327 5.37706 19.7156 5.28188V5.28188ZM8.25 20.25C6.59315 20.25 5.25 18.9069 5.25 17.25C5.25 15.5931 6.59315 14.25 8.25 14.25C9.90685 14.25 11.25 15.5931 11.25 17.25C11.25 18.9069 9.90685 20.25 8.25 20.25V20.25ZM18.75 9.49219L12.75 7.69219V4.75781L18.75 6.5625V9.49219Z" fill="#121417"/>
</g>
<defs>
<clipPath id="clip0_42_586">
<rect width="24" height="24" fill="white"/>
</clipPath>
</defs>
</svg>
