<svg width="24" height="24" viewBox="0 0 24 24" fill="none" xmlns="http://www.w3.org/2000/svg">
<g clip-path="url(#clip0_42_593)">
<path fill-rule="evenodd" clip-rule="evenodd" d="M20.0306 7.71938L14.7806 2.46937C14.6399 2.32876 14.449 2.24984 14.25 2.25H5.25C4.42157 2.25 3.75 2.92157 3.75 3.75V20.25C3.75 21.0784 4.42157 21.75 5.25 21.75H18.75C19.5784 21.75 20.25 21.0784 20.25 20.25V8.25C20.2502 8.05103 20.1712 7.86015 20.0306 7.71938V7.71938ZM15 4.81031L17.6897 7.5H15V4.81031ZM18.75 20.25H5.25V3.75H13.5V8.25C13.5 8.66421 13.8358 9 14.25 9H18.75V20.25V20.25Z" fill="#121417"/>
</g>
<defs>
<clipPath id="clip0_42_593">
<rect width="24" height="24" fill="white"/>
</clipPath>
</defs>
</svg>
